<svg xmlns="http://www.w3.org/2000/svg" xmlns:xlink="http://www.w3.org/1999/xlink" width="190" zoomAndPan="magnify" viewBox="0 0 375 374.999991" height="500" preserveAspectRatio="xMidYMid meet" version="1.0"><defs><g/><clipPath id="id1"><path d="M 123.152344 101 L 171 101 L 171 203.636719 L 123.152344 203.636719 Z M 123.152344 101 " clip-rule="nonzero"/></clipPath><clipPath id="id2"><path d="M 156 98.636719 L 199 98.636719 L 199 183 L 156 183 Z M 156 98.636719 " clip-rule="nonzero"/></clipPath><clipPath id="id3"><path d="M 178 137 L 215 137 L 215 203.636719 L 178 203.636719 Z M 178 137 " clip-rule="nonzero"/></clipPath><clipPath id="id4"><path d="M 200 134 L 252.152344 134 L 252.152344 203.636719 L 200 203.636719 Z M 200 134 " clip-rule="nonzero"/></clipPath></defs><g clip-path="url(#id1)"><path fill="rgb(100%, 63.919067%, 10.198975%)" d="M 155.46875 101.09375 L 123.140625 203.621094 L 153.589844 203.621094 L 170.691406 149.375 L 155.46875 101.09375 " fill-opacity="1" fill-rule="nonzero"/></g><g clip-path="url(#id2)"><path fill="rgb(86.669922%, 56.858826%, 12.548828%)" d="M 198.1875 134.507812 L 186.882812 98.660156 L 156.4375 98.660156 L 182.964844 182.789062 L 198.1875 134.507812 " fill-opacity="1" fill-rule="nonzero"/></g><g clip-path="url(#id3)"><path fill="rgb(100%, 63.919067%, 10.198975%)" d="M 208.574219 203.621094 L 214.269531 185.566406 L 199.042969 137.285156 L 178.128906 203.621094 L 208.574219 203.621094 " fill-opacity="1" fill-rule="nonzero"/></g><g clip-path="url(#id4)"><path fill="rgb(86.669922%, 56.858826%, 12.548828%)" d="M 252.140625 203.621094 L 230.457031 134.855469 L 200.011719 134.855469 L 221.695312 203.621094 L 252.140625 203.621094 " fill-opacity="1" fill-rule="nonzero"/></g><g fill="rgb(8.239746%, 23.139954%, 43.919373%)" fill-opacity="1"><g transform="translate(93.961374, 243.719338)"><g><path d="M 15.839844 -9.578125 L 9.503906 -9.578125 L 12.671875 -18.488281 Z M 25.195312 0 L 15.027344 -25.046875 L 10.351562 -25.046875 L 0.183594 0 L 6.113281 0 L 7.917969 -5.046875 L 17.457031 -5.046875 L 19.261719 0 Z M 25.195312 0 "/></g></g></g><g fill="rgb(8.239746%, 23.139954%, 43.919373%)" fill-opacity="1"><g transform="translate(126.706363, 243.719338)"><g><path d="M 33.445312 0 L 28.582031 -25.046875 L 22.027344 -25.046875 L 16.832031 -7.476562 L 11.601562 -25.046875 L 5.046875 -25.046875 L 0.183594 0 L 6.261719 0 L 9.207031 -17.273438 L 14.105469 0 L 19.519531 0 L 24.421875 -17.273438 L 27.367188 0 Z M 33.445312 0 "/></g></g></g><g fill="rgb(8.239746%, 23.139954%, 43.919373%)" fill-opacity="1"><g transform="translate(167.701741, 243.719338)"><g><path d="M 15.839844 -9.578125 L 9.503906 -9.578125 L 12.671875 -18.488281 Z M 25.195312 0 L 15.027344 -25.046875 L 10.351562 -25.046875 L 0.183594 0 L 6.113281 0 L 7.917969 -5.046875 L 17.457031 -5.046875 L 19.261719 0 Z M 25.195312 0 "/></g></g></g><g fill="rgb(8.239746%, 23.139954%, 43.919373%)" fill-opacity="1"><g transform="translate(200.44673, 243.719338)"><g><path d="M 7.734375 -8.949219 L 7.773438 -8.949219 L 13.738281 0 L 20.738281 0 L 13.554688 -9.207031 C 16.722656 -9.980469 19.261719 -12.78125 19.261719 -17.015625 C 19.261719 -21.769531 15.652344 -25.046875 11.601562 -25.046875 L 2.210938 -25.046875 L 2.210938 0 L 7.734375 0 Z M 10.679688 -20.699219 C 12.300781 -20.699219 13.996094 -19.300781 13.996094 -17.015625 C 13.996094 -14.621094 12.300781 -13.296875 10.679688 -13.296875 L 7.734375 -13.296875 L 7.734375 -20.699219 Z M 10.679688 -20.699219 "/></g></g></g><g fill="rgb(8.239746%, 23.139954%, 43.919373%)" fill-opacity="1"><g transform="translate(228.108895, 243.719338)"><g><path d="M 12.855469 -20.035156 L 20 -20.035156 L 20 -25.046875 L 0.183594 -25.046875 L 0.183594 -20.035156 L 7.328125 -20.035156 L 7.328125 0 L 12.855469 0 Z M 12.855469 -20.035156 "/></g></g></g><g fill="rgb(8.239746%, 23.139954%, 43.919373%)" fill-opacity="1"><g transform="translate(255.660567, 243.719338)"><g><path d="M 15.839844 -9.578125 L 9.503906 -9.578125 L 12.671875 -18.488281 Z M 25.195312 0 L 15.027344 -25.046875 L 10.351562 -25.046875 L 0.183594 0 L 6.113281 0 L 7.917969 -5.046875 L 17.457031 -5.046875 L 19.261719 0 Z M 25.195312 0 "/></g></g></g><g fill="rgb(8.239746%, 23.139954%, 43.919373%)" fill-opacity="1"><g transform="translate(106.658524, 269.552502)"><g><path d="M 3.480469 -14.121094 C 3.265625 -14.308594 3.003906 -14.429688 2.71875 -14.429688 C 2.433594 -14.429688 2.171875 -14.308594 1.980469 -14.121094 C 1.765625 -13.90625 1.667969 -13.640625 1.667969 -13.355469 C 1.667969 -13.070312 1.765625 -12.808594 1.980469 -12.617188 C 2.171875 -12.402344 2.433594 -12.304688 2.71875 -12.304688 C 3.003906 -12.304688 3.265625 -12.402344 3.480469 -12.617188 C 3.671875 -12.808594 3.792969 -13.070312 3.792969 -13.355469 C 3.792969 -13.640625 3.671875 -13.90625 3.480469 -14.121094 Z M 3.578125 0 L 3.578125 -10.492188 L 1.90625 -10.492188 L 1.90625 0 Z M 3.578125 0 "/></g></g></g><g fill="rgb(8.239746%, 23.139954%, 43.919373%)" fill-opacity="1"><g transform="translate(116.890258, 269.552502)"><g><path d="M 9.039062 0 L 10.707031 0 L 10.707031 -6.558594 C 10.707031 -7.773438 10.375 -8.753906 9.753906 -9.492188 C 9.421875 -9.875 9.039062 -10.160156 8.585938 -10.375 C 8.109375 -10.589844 7.511719 -10.707031 6.773438 -10.707031 C 6.011719 -10.707031 5.367188 -10.492188 4.792969 -10.113281 C 4.246094 -9.753906 3.792969 -9.277344 3.457031 -8.679688 L 3.457031 -10.492188 L 1.789062 -10.492188 L 1.789062 0 L 3.457031 0 L 3.457031 -4.386719 C 3.457031 -5.722656 3.695312 -6.773438 4.199219 -7.558594 C 4.484375 -7.988281 4.839844 -8.347656 5.292969 -8.632812 C 5.722656 -8.894531 6.320312 -9.039062 7.035156 -9.039062 C 7.75 -9.039062 8.253906 -8.777344 8.5625 -8.300781 C 8.871094 -7.824219 9.039062 -7.226562 9.039062 -6.558594 Z M 9.039062 0 "/></g></g></g><g fill="rgb(8.239746%, 23.139954%, 43.919373%)" fill-opacity="1"><g transform="translate(133.799346, 269.552502)"><g><path d="M 5.078125 1 L 9.898438 -10.492188 L 8.085938 -10.492188 L 5.078125 -2.695312 L 2.050781 -10.492188 L 0.238281 -10.492188 Z M 5.078125 1 "/></g></g></g><g fill="rgb(8.239746%, 23.139954%, 43.919373%)" fill-opacity="1"><g transform="translate(148.705238, 269.552502)"><g><path d="M 12.042969 -5.484375 C 12.042969 -6.917969 11.472656 -8.15625 10.375 -9.230469 C 9.300781 -10.253906 8.011719 -10.78125 6.558594 -10.78125 C 5.03125 -10.78125 3.746094 -10.230469 2.671875 -9.160156 C 1.597656 -8.085938 1.074219 -6.796875 1.074219 -5.292969 C 1.074219 -3.769531 1.597656 -2.480469 2.671875 -1.429688 C 3.171875 -0.929688 3.746094 -0.546875 4.414062 -0.261719 C 5.078125 0.0234375 5.867188 0.167969 6.796875 0.167969 C 7.726562 0.167969 8.632812 -0.121094 9.539062 -0.691406 C 10.445312 -1.265625 11.113281 -2.074219 11.566406 -3.078125 L 9.660156 -3.078125 C 9.277344 -2.574219 8.824219 -2.195312 8.277344 -1.90625 C 7.726562 -1.621094 7.15625 -1.503906 6.558594 -1.503906 C 5.652344 -1.503906 4.839844 -1.789062 4.125 -2.386719 C 3.410156 -2.957031 2.957031 -3.695312 2.8125 -4.601562 L 12.042969 -4.601562 Z M 10.28125 -6.035156 L 2.839844 -6.035156 C 2.933594 -6.464844 3.101562 -6.867188 3.339844 -7.25 C 4.101562 -8.492188 5.175781 -9.109375 6.558594 -9.109375 C 7.441406 -9.109375 8.226562 -8.824219 8.917969 -8.253906 C 9.636719 -7.65625 10.066406 -6.917969 10.28125 -6.035156 Z M 10.28125 -6.035156 "/></g></g></g><g fill="rgb(8.239746%, 23.139954%, 43.919373%)" fill-opacity="1"><g transform="translate(166.47285, 269.552502)"><g><path d="M 3.292969 -1.480469 C 2.886719 -1.765625 2.574219 -2.242188 2.410156 -2.933594 L 0.644531 -2.933594 C 1 -0.761719 2.386719 0.308594 4.816406 0.308594 C 5.390625 0.308594 5.914062 0.261719 6.414062 0.121094 C 6.917969 -0.0234375 7.347656 -0.214844 7.75 -0.476562 C 8.5625 -1.027344 8.96875 -1.859375 8.96875 -2.980469 C 8.96875 -4.125 8.441406 -4.9375 7.347656 -5.460938 C 6.894531 -5.675781 6.390625 -5.84375 5.84375 -5.960938 C 5.320312 -6.082031 4.816406 -6.226562 4.363281 -6.367188 C 3.886719 -6.511719 3.507812 -6.703125 3.195312 -6.917969 C 2.886719 -7.132812 2.71875 -7.464844 2.71875 -7.941406 C 2.71875 -8.417969 2.910156 -8.777344 3.292969 -8.992188 C 3.671875 -9.230469 4.125 -9.347656 4.625 -9.347656 C 5.152344 -9.347656 5.605469 -9.230469 5.960938 -9.039062 C 6.320312 -8.847656 6.605469 -8.464844 6.773438 -7.894531 L 8.5625 -7.894531 C 8.347656 -8.945312 7.894531 -9.683594 7.226562 -10.089844 C 6.535156 -10.519531 5.699219 -10.734375 4.675781 -10.734375 C 3.671875 -10.734375 2.789062 -10.445312 2.050781 -9.921875 C 1.335938 -9.375 0.953125 -8.585938 0.953125 -7.535156 C 0.953125 -7.035156 1.097656 -6.582031 1.359375 -6.199219 C 1.644531 -5.796875 2.050781 -5.484375 2.574219 -5.246094 C 3.054688 -5.03125 3.554688 -4.867188 4.078125 -4.722656 C 4.601562 -4.601562 5.105469 -4.460938 5.582031 -4.316406 C 6.652344 -3.960938 7.203125 -3.433594 7.203125 -2.765625 C 7.203125 -1.621094 6.441406 -1.074219 4.914062 -1.074219 C 4.269531 -1.074219 3.71875 -1.191406 3.292969 -1.480469 Z M 3.292969 -1.480469 "/></g></g></g><g fill="rgb(8.239746%, 23.139954%, 43.919373%)" fill-opacity="1"><g transform="translate(180.83024, 269.552502)"><g><path d="M 0.476562 -8.945312 L 3.101562 -8.945312 L 3.101562 0 L 4.769531 0 L 4.769531 -8.945312 L 7.371094 -8.945312 L 7.371094 -10.492188 L 4.769531 -10.492188 L 4.769531 -14.574219 L 3.101562 -14.574219 L 3.101562 -10.492188 L 0.476562 -10.492188 Z M 0.476562 -8.945312 "/></g></g></g><g fill="rgb(8.239746%, 23.139954%, 43.919373%)" fill-opacity="1"><g transform="translate(193.446755, 269.552502)"><g/></g></g><g fill="rgb(8.239746%, 23.139954%, 43.919373%)" fill-opacity="1"><g transform="translate(204.656253, 269.552502)"><g><path d="M 3.457031 0 L 3.457031 -1.789062 C 3.53125 -1.644531 3.648438 -1.527344 3.746094 -1.429688 C 4.746094 -0.308594 5.960938 0.238281 7.417969 0.238281 C 8.847656 0.238281 10.066406 -0.308594 11.066406 -1.429688 C 12.019531 -2.503906 12.519531 -3.769531 12.519531 -5.246094 C 12.519531 -6.703125 12.019531 -7.964844 11.066406 -9.0625 C 10.066406 -10.160156 8.847656 -10.734375 7.417969 -10.734375 C 5.960938 -10.734375 4.746094 -10.160156 3.746094 -9.0625 C 3.648438 -8.945312 3.53125 -8.824219 3.457031 -8.679688 L 3.457031 -17.886719 L 1.789062 -17.886719 L 1.789062 0 Z M 10.851562 -5.246094 C 10.851562 -4.222656 10.492188 -3.316406 9.777344 -2.574219 C 9.0625 -1.8125 8.179688 -1.429688 7.15625 -1.429688 C 6.105469 -1.429688 5.222656 -1.8125 4.507812 -2.574219 C 3.792969 -3.316406 3.457031 -4.222656 3.457031 -5.246094 C 3.457031 -6.25 3.792969 -7.15625 4.507812 -7.917969 C 5.222656 -8.679688 6.105469 -9.0625 7.15625 -9.0625 C 8.179688 -9.0625 9.0625 -8.679688 9.777344 -7.917969 C 10.492188 -7.15625 10.851562 -6.25 10.851562 -5.246094 Z M 10.851562 -5.246094 "/></g></g></g><g fill="rgb(8.239746%, 23.139954%, 43.919373%)" fill-opacity="1"><g transform="translate(223.02006, 269.552502)"><g><path d="M 10.136719 -5.246094 C 10.136719 -4.222656 9.777344 -3.316406 9.0625 -2.574219 C 8.347656 -1.8125 7.464844 -1.429688 6.441406 -1.429688 C 5.390625 -1.429688 4.507812 -1.8125 3.792969 -2.574219 C 3.078125 -3.316406 2.742188 -4.222656 2.742188 -5.246094 C 2.742188 -6.25 3.078125 -7.15625 3.792969 -7.917969 C 4.507812 -8.679688 5.390625 -9.0625 6.441406 -9.0625 C 7.464844 -9.0625 8.347656 -8.679688 9.0625 -7.917969 C 9.777344 -7.15625 10.136719 -6.25 10.136719 -5.246094 Z M 11.804688 0 L 11.804688 -10.492188 L 10.136719 -10.492188 L 10.136719 -8.679688 C 10.039062 -8.824219 9.921875 -8.945312 9.828125 -9.0625 C 8.824219 -10.160156 7.609375 -10.734375 6.175781 -10.734375 C 4.722656 -10.734375 3.507812 -10.160156 2.503906 -9.0625 C 1.550781 -7.964844 1.074219 -6.703125 1.074219 -5.246094 C 1.074219 -3.769531 1.550781 -2.503906 2.503906 -1.429688 C 3.507812 -0.308594 4.722656 0.238281 6.175781 0.238281 C 7.609375 0.238281 8.824219 -0.308594 9.828125 -1.429688 C 9.921875 -1.527344 10.039062 -1.644531 10.136719 -1.789062 L 10.136719 0 Z M 11.804688 0 "/></g></g></g><g fill="rgb(8.239746%, 23.139954%, 43.919373%)" fill-opacity="1"><g transform="translate(241.383866, 269.552502)"><g><path d="M 9.039062 0 L 10.707031 0 L 10.707031 -6.558594 C 10.707031 -7.773438 10.375 -8.753906 9.753906 -9.492188 C 9.421875 -9.875 9.039062 -10.160156 8.585938 -10.375 C 8.109375 -10.589844 7.511719 -10.707031 6.773438 -10.707031 C 6.011719 -10.707031 5.367188 -10.492188 4.792969 -10.113281 C 4.246094 -9.753906 3.792969 -9.277344 3.457031 -8.679688 L 3.457031 -10.492188 L 1.789062 -10.492188 L 1.789062 0 L 3.457031 0 L 3.457031 -4.386719 C 3.457031 -5.722656 3.695312 -6.773438 4.199219 -7.558594 C 4.484375 -7.988281 4.839844 -8.347656 5.292969 -8.632812 C 5.722656 -8.894531 6.320312 -9.039062 7.035156 -9.039062 C 7.75 -9.039062 8.253906 -8.777344 8.5625 -8.300781 C 8.871094 -7.824219 9.039062 -7.226562 9.039062 -6.558594 Z M 9.039062 0 "/></g></g></g><g fill="rgb(8.239746%, 23.139954%, 43.919373%)" fill-opacity="1"><g transform="translate(258.292957, 269.552502)"><g><path d="M 3.457031 0 L 3.457031 -5.03125 L 7.585938 0 L 9.800781 0 L 5.199219 -5.414062 L 9.515625 -10.519531 L 7.296875 -10.519531 L 3.457031 -5.773438 L 3.457031 -17.886719 L 1.789062 -17.886719 L 1.789062 0 Z M 3.457031 0 "/></g></g></g></svg>